<svg xmlns="http://www.w3.org/2000/svg" viewBox="0 0 68.55 96.71"><defs><style>.a{fill:#1673b7;}.b{fill:#010101;}</style></defs><path class="a" d="M67.65,29.89a23.8,23.8,0,0,0-.4,4.2,27.84,27.84,0,0,0-.48,5.54c0,.75-.06,1.51-.08,2.26a4.75,4.75,0,0,0-.32,2.58,20.15,20.15,0,0,0-.4,4.18,36.68,36.68,0,0,0-.5,5.54,26.3,26.3,0,0,0-.37,5.17,14.18,14.18,0,0,0-.42,4.45,22.67,22.67,0,0,0-.51,4.93,27,27,0,0,0-.43,4.83l-.17,1.35,0,.59c-.05.54-.09,1.09-.13,1.63a40,40,0,0,0-.52,6.18,21.17,21.17,0,0,0-.35,5.15l-.36.67a32.59,32.59,0,0,0-4.85,1.35,32.79,32.79,0,0,0-4.86,1.37,15.53,15.53,0,0,0-4,1.14.82.82,0,0,0-.82.19,27.15,27.15,0,0,0-4.91,1.38,24.39,24.39,0,0,0-4.81,1.35C36.26,96,34.75,97,33,96.59a27,27,0,0,0-4.83-1.34,25.7,25.7,0,0,0-4.87-1.36,86.13,86.13,0,0,0-9.73-2.73L8.78,89.84c-.81-.64-2.2-.16-2.71-1.39a23.16,23.16,0,0,0-.46-5.19,23.31,23.31,0,0,0-.41-4.79,28.48,28.48,0,0,0-.32-4.23c-.34-3.88-.47-7.77-1-11.62l-.35-3.57A33.5,33.5,0,0,0,3,54.25a22.13,22.13,0,0,0-.4-4.94,32.69,32.69,0,0,0-.4-4.84c-.5-1.27,0-2.61-.3-3.9.06-.36.17-.72-.2-1h0a20.86,20.86,0,0,0-.41-4.8,28.17,28.17,0,0,0-.39-4.85,36.18,36.18,0,0,0-.48-4.87A25.35,25.35,0,0,0,0,20.2c0-.83.21-1.28,1.17-1.21s1.81,0,2.72,0H67c.73.09,1.63-.05,1.5,1.15l0,.07a1,1,0,0,0-.15,1c-.1,1.09-.19,2.17-.29,3.26C67.94,26.24,67.79,28.07,67.65,29.89ZM34.39,32.72v.09H32.61c-6.15,0-12.29,0-18.44,0-1.1,0-1.39.27-1.23,1.37a40.21,40.21,0,0,1,.45,5.47c0,1.51.6,1.82,2,1.82,9.81,0,19.62.05,29.43,0,1.17,0,1.51.33,1.35,1.47a31.9,31.9,0,0,0-.47,5.14c.06,1.76-.71,2-2.2,1.94-6-.05-12,.07-18,0-1.41,0-1.6.46-1.41,1.69a47.5,47.5,0,0,1,.49,5.47c0,1.16.39,1.53,1.61,1.52,5.71,0,11.43.05,17.14.05.94,0,1.38.16,1.25,1.24q-.48,4.26-.78,8.53c-.06,1-.52,1.29-1.39,1.6-5.2,1.91-10.38,2.66-15.63.26a2,2,0,0,0-.63-.15c-1.26-.14-1.67-.85-1.66-2.08s-.26-2.57-.28-3.86c0-1.1-.49-1.36-1.49-1.32-1.94.06-3.89.08-5.82,0-1.15,0-1.49.29-1.37,1.44.38,3.59.7,7.19,1,10.78A1.6,1.6,0,0,0,18,76.84c5.15,1.39,10.29,2.83,15.43,4.28a3.92,3.92,0,0,0,2.2,0c4.3-1.22,8.62-2.4,12.92-3.61,3.36-.93,3.36-.94,3.74-4.48.09-.81.15-1.61.23-2.42Q53.58,58.29,54.69,46c.35-4,.68-7.95,1.05-11.92.09-.91,0-1.37-1.13-1.36C47.87,32.74,41.13,32.72,34.39,32.72Z"/><path class="b" d="M52.49,0c.48.17,1.28-.18,1.29.78l0,2.88c-1.76.24-3.56-.24-5.58.24L50.1,5.71a11.62,11.62,0,0,0,2.33,2.57c.34.82,1.35,1.2,1.43,2.19a8.79,8.79,0,0,0,.07,1.26c.22,1.23-.41,1.58-1.48,1.52H42.74c-.61,0-1.17-.06-1.06-1a11.55,11.55,0,0,0-.06-1.76c0-.78.39-1.12,1.14-1.09h4.71C46.19,8.05,45.18,6.81,44,5.72,42.59,4.37,41.34,3,41.59.82c.07-.75.64-.76,1.19-.81h9.71Z"/><path class="b" d="M33,13.25H28.2c-.67-.05-.87-.42-.82-1.06a16.82,16.82,0,0,0-.08-1.73c0-.55.16-1,.87-1a26,26,0,0,0,4.9,0C31.79,8,30.76,6.68,29.55,5.56,28.14,4.24,27.09,2.82,27.24.78c-.18-.83.49-.66.92-.78a31,31,0,0,0,4.91,0h4.8c.53.24,1.44-.3,1.59.75a4.22,4.22,0,0,0-.08,1.11c.25,1.47-.34,2.07-1.79,1.87-1.12.48-2.34,0-3.6.34L35.92,6c.65.69,1.31,1.38,2,2.08.44.9,1.55,1.33,1.72,2.42a4.39,4.39,0,0,0-.05,1c.22,1.32-.19,2-1.64,1.78Z"/><path class="b" d="M23.32,13.25H18.17c-.27,0-.53-.06-.8-.06-2.69,0-2.69,0-2.83-2.71V5.65c0-1.75.37-3.52-.22-5.25C15.64-.35,17.09.35,18.45,0h4.91C24,.33,25-.47,25.21.78a4.15,4.15,0,0,0-.11,1.1c.29,1.49-.27,2.19-1.8,2.07-.9,0-1.8,0-2.68-.11-1.48-.18-1.93.42-1.52,1.79-.4,3.89-.4,3.9,3.35,3.75a4.11,4.11,0,0,0,.61-.12c.72.38,2.16-.5,2.14,1.2a3.38,3.38,0,0,0-.1.94C25.36,12.86,24.73,13.42,23.32,13.25Z"/></svg>