<svg xmlns="http://www.w3.org/2000/svg" viewBox="0 0 67.34 94.94"><defs><style>.a{fill:#e44e27;}.b{fill:#010101;}</style></defs><path class="a" d="M9.12,89.05c-.82-.58-2.24-.2-2.55-1.6a20.59,20.59,0,0,0-.38-4.76,34.08,34.08,0,0,0-.51-6L5.53,74.4a.2.2,0,0,0,0-.28l-.13-.92c-.22-2.92-.43-5.84-.66-8.76,0-.31,0-.65-.35-.81A17.12,17.12,0,0,0,4,58.84a40.57,40.57,0,0,0-.38-5.05c-.1-1.07-.19-2.14-.29-3.21a1.27,1.27,0,0,0-.22-1.28l0,0a17.16,17.16,0,0,0-.36-4.69,27.13,27.13,0,0,1-.38-4.76,38.49,38.49,0,0,0-.55-6.34c0-.54-.09-1.09-.13-1.64,0-.19,0-.38-.05-.57v-1c-.21-2-.41-4-.61-6.05C1,23.48.92,22.73.85,22l.1-.06-.12-.16,0-.07a.87.87,0,0,0-.19-1l0,0c0-.73.24-1.17,1.1-1.12s1.76,0,2.64-.05h62c.77.09,1.81-.15,1.6,1.22a23.87,23.87,0,0,0-.42,4.76,27.59,27.59,0,0,0-.47,4.8A21.61,21.61,0,0,0,66.65,35c-.25,1.79-.8,3.56-.47,5.4l-.13,2.22-.06.47a26,26,0,0,0-.61,6.22,15.83,15.83,0,0,0-.47,4.8l-.1.6a.19.19,0,0,0,0,.28l-.11,1.62a37,37,0,0,0-.57,7,19.25,19.25,0,0,0-.37,3.79s-.1.06-.1.09a1.19,1.19,0,0,0,0,.26l0,.59-.43,4.82a27.37,27.37,0,0,0-.39,4.78,29.35,29.35,0,0,0-.5,4.78,28.75,28.75,0,0,0-.35,5l-.47.75a30.14,30.14,0,0,0-4.73,1.3A27.85,27.85,0,0,0,52,91.11a14.91,14.91,0,0,0-3.86,1.09.91.91,0,0,0-.88.25,23.82,23.82,0,0,0-4.78,1.31,24.22,24.22,0,0,0-4.73,1.31c-1.6.14-3.09,1.12-4.77.6a27.49,27.49,0,0,0-4.72-1.3A23.66,23.66,0,0,0,24,93.14q-5-1.62-10.16-2.78A30.52,30.52,0,0,0,9.12,89.05ZM34.25,33.63v0c-6.51,0-13,0-19.53,0-1.2,0-1.56.3-1.44,1.51q1.08,11.22,2,22.44c.11,1.3.57,1.59,1.83,1.58,8.57-.05,17.15,0,25.72,0,1.38,0,1.73.37,1.57,1.69-.31,2.68-.53,5.37-.7,8.06a1.29,1.29,0,0,1-1.16,1.39c-2.25.57-4.52,1.13-6.73,1.86a4.13,4.13,0,0,1-2.42.18c-2.51-.65-5-1.37-7.52-2A1.27,1.27,0,0,1,24.79,69c-.11-1.53-.32-3.06-.38-4.59,0-.91-.41-1.16-1.27-1.14-2.06,0-4.13,0-6.19,0-1,0-1.12.4-1,1.25.35,3.52.68,7,.94,10.59A1.73,1.73,0,0,0,18.38,77c4.5,1.18,9,2.34,13.43,3.78a7.23,7.23,0,0,0,4.55.07c4.47-1.29,9-2.58,13.46-3.7a2.17,2.17,0,0,0,1.91-2.35q.92-11.31,2-22.6c.13-1.3-.24-1.61-1.39-1.5-.58.05-1.17,0-1.75,0-8.63,0-17.26,0-25.88.06-1.18,0-1.7-.25-1.72-1.55A36.48,36.48,0,0,0,22.5,44c-.24-1.52.17-1.95,1.78-1.94,9.58.1,19.16.06,28.74.11,1.16,0,1.7-.24,1.73-1.53,0-1.85.27-3.69.49-5.53.13-1-.1-1.48-1.3-1.47C47.38,33.66,40.82,33.63,34.25,33.63Z" transform="translate(-0.6 -0.88)"/><path class="b" d="M9.15,13.87a1.88,1.88,0,0,0-.61-.07c-1.44.28-1.86-.37-1.65-1.69a4.07,4.07,0,0,0-.06-.92V1.65C7.21.31,8.38,1.29,9.09.9c.69.42,1.89-.61,2.26.77,0,.37-.07.73-.07,1.09,0,2.55,0,2.55,2.59,2.35.8.2,1.35.14,1.25-.93-.09-.84,0-1.69-.07-2.54,0-.62.43-.69.95-.68.87,0,1.75,0,2.62-.06.5,0,.88.19.94.75a29.59,29.59,0,0,0,0,4.8,24.91,24.91,0,0,0,0,4.73,13.64,13.64,0,0,0-.06,1.69c0,.63-.17,1-.82,1-.26,0-.52-.06-.78-.06-2.71,0-2.71,0-2.85-2.62,0-.82.54-2-1.17-1.58-2.65-.23-2.65-.23-2.53,1.6C11.16,13.71,11.16,13.71,9.15,13.87Z" transform="translate(-0.6 -0.88)"/><path class="b" d="M28.2,13.87c-.16,0-.31-.06-.46-.07-2.65-.07-2.65-.07-2.83-2.62V6.46c.35-1.54-.67-1.24-1.53-1.14-2.12-.16-2.12-.16-2.14-2.39,0-.42,0-.84-.07-1.25.36-1.41,1.57-.35,2.27-.78h4.71L33,1l.22.66L33,5.28c-3.58-.13-3.58-.13-3.54,3.38,0,.21,0,.42,0,.63a4.72,4.72,0,0,0,0,1.91,7.22,7.22,0,0,0-.05,1.39C29.55,13.58,29.06,13.88,28.2,13.87Z" transform="translate(-0.6 -0.88)"/><path class="b" d="M61.52,13.88a27.67,27.67,0,0,0-4.73,0,28.5,28.5,0,0,0-4.8,0c-1.16-.68-.25-1.83-.63-2.69V1.67A.79.79,0,0,1,52,.88c.89,0,1.78.07,2.67.08.53,0,1.09-.07,1.13.7V6.44c0,.77-.05,1.53-.08,2.29s.4.83,1,.67c1.67.32,3.4-.19,5.06.28l.07,1.51C61.6,12.07,62.14,13.05,61.52,13.88Z" transform="translate(-0.6 -0.88)"/><path class="b" d="M47.26,13.87c-.88-.32-2.5.58-2.36-1.42V7.78l-1.87,3a1.37,1.37,0,0,0-.57,1c-.74.41-.71-.49-1.12-.64A14.63,14.63,0,0,0,39.25,8v3.25a5.41,5.41,0,0,0-.08,1.06c.16,1.13-.21,1.74-1.44,1.6a.76.76,0,0,0-.16,0c-2.57-.15-2.57-.15-2.74-2.65V6.44l0-5.4L37.68.91c1,0,2,0,2.5,1.17l2,3.31.77-1.47a6.68,6.68,0,0,0,1.34-2.13c.68-1.33,2-.62,3-.89.71.39,1.88-.57,2.27.77a27,27,0,0,0,0,4.76,28.26,28.26,0,0,0,0,4.78,1.86,1.86,0,0,0-.08.45C49.78,13.47,48.94,14.08,47.26,13.87Z" transform="translate(-0.6 -0.88)"/></svg>