<svg xmlns="http://www.w3.org/2000/svg" viewBox="0 0 68.43 96.28"><defs><style>.a{fill:#010101;}.b{fill:#f0db4e;}</style></defs><path class="a" d="M28.13.24l4.18,0c0,1.61.09,3.21.13,4.82V10c-.25,1.08.47,2.61-.33,3.18s-2.17.14-3.29.16a4.52,4.52,0,0,0-.63.08,26.19,26.19,0,0,0-4.93,0c-1.07.07-1.52-.38-1.38-1.49A11.23,11.23,0,0,0,21.83,10c-.12-1.21.81-1,1.5-1.1.37,0,.74.07,1.1.07,3.76,0,3.76,0,3.41-3.85L27.93.34A.18.18,0,0,0,28.13.24Z" transform="translate(-0.06 -0.21)"/><path class="a" d="M34.48,9.91c1.07-.53,2.24,0,3.33-.31a5,5,0,0,0,2.61-.23L37.9,7.22a9.83,9.83,0,0,0-2-2.15c-1.49-1.31-1.63-3-1.31-4.78L37.8.22a28.17,28.17,0,0,0,4.86,0l3.73.13c.09,3.42.09,3.42-3.34,3.54-.1,0-.2.05-.3.07A3,3,0,0,0,41,4.07l5.76,6.14c-.32,1,.4,2.39-.36,2.89s-2.06.14-3.12.17a4.58,4.58,0,0,0-.63.1,23,23,0,0,0-4.76,0c-1.05-.05-2.45.28-3.06-.26S34.66,11,34.48,9.91Z" transform="translate(-0.06 -0.21)"/><path class="b" d="M23.32,19.16h4.8l5.14,0,4.51-.05a27,27,0,0,0,4.92,0,30.26,30.26,0,0,0,4.76,0,27.65,27.65,0,0,0,4.9,0h4.77a30.58,30.58,0,0,0,4.88,0l4.54,0c.64.17,1.4-.2,1.95.4-.73,1.54-.24,3.21-.52,4.79l-.41,4.9a19,19,0,0,0-.37,4.82,38.59,38.59,0,0,0-.71,9.35c-.89,1.64-.49,3.43-.58,5.17a12.53,12.53,0,0,0-.51,4.87l-.1,1a.19.19,0,0,0,0,.24l-.14,1.66a30.73,30.73,0,0,0-.52,6.77,29.62,29.62,0,0,0-.52,4.79,36.35,36.35,0,0,0-.39,4.89,18.66,18.66,0,0,0-.38,4.83,20.93,20.93,0,0,0-.59,5.11l-.15,2.63c-.62,1.16.06,2.54-.61,3.7a21.07,21.07,0,0,0-4.86,1.38,72.78,72.78,0,0,0-9.62,2.63,26.19,26.19,0,0,0-4.83,1.33,26.31,26.31,0,0,0-4.86,1.34c-1.61.18-3.14,1-4.82.66a19.39,19.39,0,0,0-4.83-1.35,24.52,24.52,0,0,0-4.83-1.33L18.19,92.2,9.46,89.8c-2.28-.35-3.81-1.31-3.28-4,0-.23-.15-.5-.23-.74l-.13-2.32a23.28,23.28,0,0,0-.6-5.13,17,17,0,0,0-.39-4.82c-.11-2.29-.16-4.59-.35-6.88a6.27,6.27,0,0,0-.55-2.79,19.59,19.59,0,0,0-.39-4.83c-.15-1.63-.29-3.27-.43-4.9a25,25,0,0,0-.45-4.81,26.21,26.21,0,0,0-.53-6.43L2,39.87a23.14,23.14,0,0,0-.62-5.75A17,17,0,0,0,1,29.29a32.18,32.18,0,0,0-.41-4.9L.44,22.8l.1-.07-.12-.16c-.42-1-.14-2-.36-3,1.24-.78,2.66-.1,4-.46a28,28,0,0,0,4.76,0,27.65,27.65,0,0,0,4.9,0h4.77A29.45,29.45,0,0,0,23.32,19.16Zm12.09,8.89v.05H19.78c-.75,0-1.48-.12-1.58,1-.82,9.35-1.7,18.7-2.52,28.05-.21,2.36-.31,2,2,2q12.72,0,25.46,0c.89,0,1.58,0,1.44,1.25-.31,2.87-.53,5.76-.81,8.65,0,.58-.09,1.15-.86,1.35-2.75.71-5.49,1.49-8.24,2.2a2.6,2.6,0,0,1-1.27,0c-2.59-.68-5.18-1.41-7.77-2.09a1.24,1.24,0,0,1-1.07-1.34c-.06-1.55-.28-3.1-.35-4.65,0-.8-.31-1.13-1.16-1.11-2.15,0-4.3.07-6.44,0-1,0-1.1.38-1,1.21q.54,5.61,1,11.23c.07.87.5,1.16,1.26,1.36q7.61,2.09,15.2,4.23a3.67,3.67,0,0,0,2,.06q7.84-2.16,15.68-4.29a1.29,1.29,0,0,0,1.12-1.31C52.53,68,53.2,60,54,52.05c.12-1.21-.21-1.47-1.33-1.46-5.48,0-11,0-16.44,0l-10,0c-.63,0-1.36.12-1.27-.93q.54-5.68,1-11.38c.07-.8.47-1,1.26-1.08a119,119,0,0,1,16.24.31c.78.06,1.15.28,1.2,1.11.15,2.14.44,4.27.56,6.41.06,1,.45,1.41,1.47,1.38,1.83-.05,3.66-.11,5.48,0,1.57.11,1.88-.47,1.73-1.93q-.75-7.44-1.3-14.9c-.09-1.24-.47-1.64-1.73-1.62C45.72,28.09,40.57,28.05,35.41,28.05Z" transform="translate(-0.06 -0.21)"/></svg>